#tb 0: 1/90000
#tb 1: 1/22222
0,          0,          0,        0,   188892, 0xcb5be3dd
1,          0,          0,     8186,    16372, 0xfaaab59d
0,       6000,       6000,        0,   188892, 0x0f313ebc
0,      12000,      12000,        0,   188892, 0xc0da25cc
0,      18000,      18000,        0,   188892, 0xad6e1d44
0,      24000,      24000,        0,   188892, 0xb1103b40
0,      30000,      30000,        0,   188892, 0xae033450
1,       8186,       8186,     2014,     4028, 0xc2daed72
0,      36000,      36000,        0,   188892, 0xb31f03b4
1,      10200,      10200,     2743,     5486, 0xf7fd794d
0,      42000,      42000,        0,   188892, 0xacb2d3f9
0,      48000,      48000,        0,   188892, 0x7d77ecbd
1,      12943,      12943,     2895,     5790, 0xfd5a369f
0,      54000,      54000,        0,   188892, 0x7faa2f6c
0,      60000,      60000,        0,   188892, 0x28f4fdf1
1,      15838,      15838,      534,     1068, 0x0b602cd0
0,      66000,      66000,        0,   188892, 0x4b53f3b9
1,      16372,      16372,     2454,     4908, 0xfe870aad
0,      72000,      72000,        0,   188892, 0x1f09bb29
1,      18826,      18826,     3031,     6062, 0x8a4d6e0f
0,      78000,      78000,        0,   188892, 0x3afcc11d
0,      84000,      84000,        0,   188892, 0x6b918e49
1,      21857,      21857,     2701,     5402, 0x71fd352f
0,      90000,      90000,        0,   188892, 0x9630a04d
0,      96000,      96000,        0,   188892, 0x9381b4c1
1,      24558,      24558,      272,      544, 0xeb766d34
1,      24830,      24830,     2953,     5906, 0x47ac7e08
0,     102000,     102000,        0,   188892, 0xa7dea7e5
0,     108000,     108000,        0,   188892, 0xd277c41d
1,      27783,      27783,     2958,     5916, 0x0d26eb56
0,     114000,     114000,        0,   188892, 0xafa2a6c9
0,     120000,     120000,        0,   188892, 0x13a38839
1,      30741,      30741,     2003,     4006, 0x9941c71a
0,     126000,     126000,        0,   188892, 0xcd5e5a6d
0,     132000,     132000,        0,   188892, 0xe7da71e9
1,      32744,      32744,     1050,     2100, 0xc9a2ee36
1,      33794,      33794,     2947,     5894, 0xd2ba4eaa
0,     138000,     138000,        0,   188892, 0x06928add
0,     144000,     144000,        0,   188892, 0x4a108eb9
1,      36741,      36741,     3045,     6090, 0xf43e73d0
0,     150000,     150000,        0,   188892, 0xea2598f5
0,     156000,     156000,        0,   188892, 0x17ed6839
1,      39786,      39786,     1144,     2288, 0x5a8b7aa0
0,     162000,     162000,        0,   188892, 0x9de6ab65
1,      40930,      40930,     1925,     3850, 0x7f66eb2c
0,     168000,     168000,        0,   188892, 0xb4ee326f
1,      42855,      42855,     2898,     5796, 0xc5cf3ee8
0,     174000,     174000,        0,   188892, 0x3f85095b
0,     180000,     180000,        0,   188892, 0xaab7e331
1,      45753,      45753,     3021,     6042, 0xed80136d
0,     186000,     186000,        0,   188892, 0xc2a079e1
0,     192000,     192000,        0,   188892, 0x612080c2
1,      48774,      48774,      342,      684, 0xc42bd137
0,     198000,     198000,        0,   188892, 0xa7232d47
1,      49116,      49116,     2718,     5436, 0xb7f8a6fd
0,     204000,     204000,        0,   188892, 0xc053297d
1,      51834,      51834,     3049,     6098, 0xee6354a2
0,     210000,     210000,        0,   188892, 0x1ecc3bfe
0,     216000,     216000,        0,   188892, 0xcc4ac803
0,     222000,     222000,        0,   188892, 0x4b90047b
1,      54883,      54883,     2419,     4838, 0x129e61d0
0,     228000,     228000,        0,   188892, 0xd863b643
1,      57302,      57302,      537,     1074, 0x9da90634
0,     234000,     234000,        0,   188892, 0x93a25fb1
1,      57839,      57839,     3042,     6084, 0x8ffed952
0,     240000,     240000,        0,   188892, 0xf969e131
0,     246000,     246000,        0,   188892, 0x73bd2469
1,      60881,      60881,     3019,     6038, 0xa07b4276
0,     252000,     252000,        0,   188892, 0x265a9ce2
0,     258000,     258000,        0,   188892, 0xd59ccd39
1,      63900,      63900,     1588,     3176, 0xebef63c1
0,     264000,     264000,        0,   188892, 0xe50fc068
1,      65488,      65488,     1397,     2794, 0xbe1000db
0,     270000,     270000,        0,   188892, 0x83113a86
1,      66885,      66885,     3010,     6020, 0xd8e34961
0,     276000,     276000,        0,   188892, 0xa0203504
0,     282000,     282000,        0,   188892, 0x9e2d518c
1,      69895,      69895,     3010,     6020, 0xc07cf461
0,     288000,     288000,        0,   188892, 0x5f610e66
0,     294000,     294000,        0,   188892, 0x9b77f900
1,      72905,      72905,      769,     1538, 0xc975ae02
1,      73674,      73674,     2115,     4230, 0x0827111b
0,     300000,     300000,        0,   188892, 0xaaf279c2
0,     306000,     306000,        0,   188892, 0x4ac97cc2
1,      75789,      75789,     3042,     6084, 0x2cf0a407
0,     312000,     312000,        0,   188892, 0xddd91642
0,     318000,     318000,        0,   188892, 0x4f32dcd1
1,      78831,      78831,     2914,     5828, 0x12750279
0,     324000,     324000,        0,   188892, 0xdc126b42
0,     330000,     330000,        0,   188892, 0x00000000
1,      81745,      81745,      115,      230, 0xc9c03f3b
1,      81860,      81860,      384,      768, 0x6137a04d
